<svg width="24" height="24" viewBox="0 0 24 24" fill="none" xmlns="http://www.w3.org/2000/svg">
<g clip-path="url(#clip0_2:275)">
<path d="M12.1375 0.232518C12.0289 0.0223131 11.7706 -0.0602674 11.5602 0.0483141C11.4743 0.0926256 11.406 0.164586 11.3663 0.25266L8.4785 6.71171L6.73332 3.4982C6.65935 3.35666 6.51103 3.26951 6.35118 3.27408C6.19188 3.27646 6.04704 3.36673 5.97508 3.50901L2.87254 9.62217C1.87352 11.5829 2.65318 13.9823 4.61406 14.9813C4.69829 15.0243 4.78416 15.0642 4.87132 15.1012C4.0316 18.6321 5.94121 22.2381 9.3336 23.5279C10.894 24.1206 12.6112 24.1569 14.1952 23.6308L14.6665 23.473C18.4563 22.2109 20.505 18.1155 19.2427 14.326C19.1281 13.9815 18.9877 13.6463 18.8227 13.3231L12.1375 0.232518ZM5.12456 14.2789C3.5504 13.5558 2.86046 11.6933 3.58373 10.1191C3.60057 10.0825 3.61815 10.0459 3.63646 10.0098L6.37004 4.62247L8.03795 7.697L5.30272 13.8184C5.23515 13.97 5.18114 14.1247 5.12456 14.2789ZM18.2811 19.0266C17.5781 20.7464 16.1594 22.0735 14.3967 22.6604L13.9253 22.8175C12.5284 23.282 11.0138 23.2498 9.63792 22.7263C6.3477 21.4735 4.69609 17.7909 5.9489 14.5006C5.99156 14.3886 6.03752 14.2776 6.08641 14.1679L11.7848 1.41977L18.0617 13.7126C18.9064 15.3671 18.9866 17.308 18.2811 19.0266Z" fill="black"/>
<path d="M17.3283 15.4233H17.3257C17.0901 15.4233 16.8987 15.6136 16.8973 15.8492C16.8916 17.738 15.8226 19.4626 14.1336 20.308C13.9216 20.4131 13.8348 20.67 13.9397 20.8823C14.0448 21.0943 14.3017 21.1811 14.514 21.0762C14.5156 21.0752 14.5174 21.0743 14.5193 21.0734C16.4963 20.0834 17.7472 18.0648 17.7542 15.854C17.7553 15.6174 17.5647 15.4248 17.3283 15.4233Z" fill="black"/>
</g>
<defs>
<clipPath id="clip0_2:275">
<rect width="24" height="24" fill="white" transform="translate(0 0.000488281)"/>
</clipPath>
</defs>
</svg>
