<svg width="24" height="24" viewBox="0 0 24 24" fill="none" xmlns="http://www.w3.org/2000/svg">
<g clip-path="url(#clip0_2:285)">
<path d="M14.094 13.2279V3.14902C14.094 1.41011 12.6844 0.000488281 10.9455 0.000488281C9.20655 0.000488281 7.79693 1.41011 7.79693 3.14902V13.2234C5.07554 14.9597 4.27688 18.5734 6.01316 21.2948C7.08466 22.9742 8.93769 23.9923 10.9298 23.996L10.9611 24.0005C14.1893 23.9944 16.8012 21.3726 16.7952 18.1445C16.7914 16.1524 15.7734 14.2994 14.094 13.2279ZM8.48616 22.4447C6.11649 21.0766 5.30463 18.0465 6.67274 15.6769C7.10759 14.9237 7.73299 14.2983 8.48616 13.8634C8.62518 13.7831 8.71056 13.6346 8.70994 13.4741V3.14902C8.70994 1.90449 9.71883 0.895593 10.9634 0.895593C12.2079 0.895593 13.2168 1.90449 13.2168 3.14902V13.4741C13.2162 13.6346 13.3015 13.7831 13.4406 13.8634C15.8102 15.2315 16.6221 18.2616 15.254 20.6313C13.8859 23.0009 10.8558 23.8129 8.48616 22.4447Z" fill="black"/>
<path d="M11.4085 14.9374V8.14799C11.4085 7.90083 11.2081 7.70044 10.9609 7.70044C10.7137 7.70044 10.5134 7.90083 10.5134 8.14799V14.9374C8.82267 15.1798 7.64863 16.7469 7.89109 18.4376C8.10994 19.9636 9.41926 21.0954 10.9609 21.0912C12.6689 21.0959 14.0573 19.7151 14.062 18.0072C14.0663 16.4655 12.9345 15.1562 11.4085 14.9374ZM10.9609 20.1916C9.74726 20.1916 8.76342 19.2078 8.76342 17.9941C8.76589 16.7815 9.74826 15.7991 10.9609 15.7967C12.1746 15.7967 13.1584 16.7805 13.1584 17.9941C13.1584 19.2078 12.1745 20.1916 10.9609 20.1916Z" fill="black"/>
<path d="M18.4578 3.07739H15.6606C15.4135 3.07739 15.2131 3.27778 15.2131 3.52495C15.2131 3.77211 15.4135 3.9725 15.6606 3.9725H18.4578C18.705 3.9725 18.9054 3.77211 18.9054 3.52495C18.9054 3.27778 18.705 3.07739 18.4578 3.07739Z" fill="black"/>
<path d="M17.8626 5.31519H16.2201C15.9729 5.31519 15.7725 5.51558 15.7725 5.76274C15.7725 6.0099 15.9729 6.21029 16.2201 6.21029H17.8626C18.1098 6.21029 18.3101 6.0099 18.3101 5.76274C18.3101 5.51558 18.1098 5.31519 17.8626 5.31519Z" fill="black"/>
<path d="M18.4578 7.55298H15.6606C15.4135 7.55298 15.2131 7.75337 15.2131 8.00053C15.2131 8.24769 15.4135 8.44808 15.6606 8.44808H18.4578C18.705 8.44808 18.9054 8.24769 18.9054 8.00053C18.9054 7.75337 18.705 7.55298 18.4578 7.55298Z" fill="black"/>
<path d="M17.8626 9.79065H16.2201C15.9729 9.79065 15.7725 9.99104 15.7725 10.2382C15.7725 10.4854 15.9729 10.6858 16.2201 10.6858H17.8626C18.1098 10.6858 18.3101 10.4854 18.3101 10.2382C18.3101 9.99104 18.1098 9.79065 17.8626 9.79065Z" fill="black"/>
<path d="M18.4578 12.0284H15.6606C15.4135 12.0284 15.2131 12.2288 15.2131 12.476C15.2131 12.7231 15.4135 12.9235 15.6606 12.9235H18.4578C18.705 12.9235 18.9054 12.7231 18.9054 12.476C18.9054 12.2288 18.705 12.0284 18.4578 12.0284Z" fill="black"/>
</g>
<defs>
<clipPath id="clip0_2:285">
<rect width="24" height="24" fill="white" transform="translate(0 0.000488281)"/>
</clipPath>
</defs>
</svg>
