<svg width="24" height="24" viewBox="0 0 24 24" fill="none" xmlns="http://www.w3.org/2000/svg">
<g clip-path="url(#clip0_2:264)">
<path d="M20.1611 3.00161C19.4841 1.43531 17.8923 0.405396 16.0927 0.405396C13.8242 0.405396 11.9507 2.05453 11.7145 4.16808C10.066 4.31395 8.76923 5.68881 8.76923 7.35723C8.76923 9.04209 10.0835 10.433 11.7729 10.551C11.8011 10.5565 11.8297 10.5592 11.8587 10.5592H20.0346C20.047 10.5592 20.0592 10.5587 20.0714 10.5579C20.1076 10.5588 20.1441 10.5592 20.1806 10.5592C22.2867 10.5592 24 8.86398 24 6.78034C24.0001 4.69035 22.2705 2.99216 20.1611 3.00161ZM20.1807 9.63619C20.1386 9.63619 20.0967 9.63529 20.0552 9.63348C20.0482 9.63296 20.0412 9.63296 20.0342 9.63296C20.0162 9.63296 19.9984 9.63386 19.9808 9.63606H11.9176C11.9061 9.63477 11.8948 9.63386 11.8833 9.63296C10.6546 9.57083 9.69236 8.57107 9.69236 7.35723C9.69236 6.05964 10.8187 5.02468 12.1295 5.0815C12.2554 5.08732 12.3785 5.03956 12.4695 4.95258C12.5608 4.86508 12.6124 4.74303 12.6124 4.61683C12.6124 2.80357 14.1737 1.3284 16.0927 1.3284C17.6188 1.3284 18.9528 2.25153 19.4123 3.62535C19.4804 3.82857 19.6807 3.96473 19.8937 3.9382C19.9881 3.92914 20.0838 3.92474 20.1807 3.92474C21.7779 3.92474 23.0771 5.20576 23.0771 6.78047C23.0771 8.35504 21.7779 9.63619 20.1807 9.63619Z" fill="black"/>
<path d="M11.3475 15.5566L12.0001 16.2093L13.6319 14.5776C13.7184 14.491 13.7671 14.3739 13.7671 14.2513C13.7671 14.1287 13.7184 14.0116 13.6319 13.925L12.0001 12.2935L11.3475 12.9461L12.1912 13.7899H0V14.713H12.1912L11.3475 15.5566Z" fill="black"/>
<path d="M19.8462 19.6782L19.1936 20.3308L20.0374 21.1746H7.84613V22.0978H20.0374L19.1936 22.9415L19.8462 23.5942L21.478 21.9625C21.5646 21.8759 21.6132 21.7588 21.6132 21.6362C21.6132 21.5136 21.5646 21.3965 21.478 21.3099L19.8462 19.6782Z" fill="black"/>
<path d="M15.0394 19.249L15.692 19.9017L17.3238 18.27C17.4104 18.1834 17.4591 18.0663 17.4591 17.9437C17.4591 17.8211 17.4104 17.704 17.3238 17.6174L15.692 15.9857L15.0394 16.6383L15.8832 17.4821H3.69196V18.4053H15.8832L15.0394 19.249Z" fill="black"/>
</g>
<defs>
<clipPath id="clip0_2:264">
<rect width="24" height="24" fill="white" transform="translate(0 -0.000488281)"/>
</clipPath>
</defs>
</svg>
