<svg width="24" height="24" viewBox="0 0 24 24" fill="none" xmlns="http://www.w3.org/2000/svg">
<g clip-path="url(#clip0_2:252)">
<path d="M23.9114 11.7159C23.7224 11.4409 19.1803 4.99976 12.0002 4.99976C5.83907 4.99976 0.348988 11.4039 0.117984 11.6769C-0.0390026 11.8629 -0.0390026 12.1359 0.117984 12.3229C0.348988 12.5959 5.83907 19 12.0002 19C18.1613 19 23.6513 12.5959 23.8823 12.3229C24.0274 12.1509 24.0404 11.9019 23.9114 11.7159ZM12.0002 18C7.06112 18 2.36502 13.2899 1.17203 11.9999C2.36305 10.7089 7.05414 5.9998 12.0002 5.9998C17.7793 5.9998 21.8583 10.7029 22.8544 11.9729C21.7043 13.2219 16.9812 18 12.0002 18Z" fill="black"/>
<path d="M11.9998 7.99976C9.79379 7.99976 7.99976 9.79379 7.99976 11.9998C7.99976 14.2058 9.79379 15.9999 11.9998 15.9999C14.2058 15.9999 15.9999 14.2058 15.9999 11.9998C15.9999 9.79379 14.2058 7.99976 11.9998 7.99976ZM11.9998 14.9999C10.3458 14.9999 8.99976 13.6539 8.99976 11.9999C8.99976 10.3458 10.3458 8.9998 11.9998 8.9998C13.6538 8.9998 14.9999 10.3458 14.9999 11.9999C14.9999 13.6539 13.6538 14.9999 11.9998 14.9999Z" fill="black"/>
</g>
<defs>
<clipPath id="clip0_2:252">
<rect width="24" height="24" fill="white"/>
</clipPath>
</defs>
</svg>
