<svg width="24" height="24" viewBox="0 0 24 24" fill="none" xmlns="http://www.w3.org/2000/svg">
<path d="M19.3043 3.13037C16.715 3.13037 14.6087 5.23715 14.6087 7.82602C14.6087 8.11402 14.8419 8.34776 15.1304 8.34776C15.419 8.34776 15.6522 8.11402 15.6522 7.82602C15.6522 5.81211 17.291 4.17385 19.3043 4.17385C21.3177 4.17385 22.9565 5.81211 22.9565 7.82602C22.9565 9.83994 21.3177 11.4782 19.3043 11.4782H0.521739C0.233739 11.4782 0 11.7119 0 11.9999C0 12.2879 0.233739 12.5217 0.521739 12.5217H19.3043C21.8937 12.5217 24 10.4149 24 7.82602C24 5.23715 21.8937 3.13037 19.3043 3.13037Z" fill="black"/>
<path d="M9.3913 2.08691C7.37739 2.08691 5.73913 3.72518 5.73913 5.73909C5.73913 6.02709 5.97287 6.26083 6.26087 6.26083C6.54887 6.26083 6.78261 6.02709 6.78261 5.73909C6.78261 4.30065 7.95287 3.13039 9.3913 3.13039C10.8297 3.13039 12 4.30065 12 5.73909C12 7.17752 10.8297 8.34778 9.3913 8.34778H0.521739C0.233739 8.34778 0 8.58152 0 8.86952C0 9.15752 0.233739 9.39126 0.521739 9.39126H9.3913C11.4052 9.39126 13.0435 7.753 13.0435 5.73909C13.0435 3.72518 11.4052 2.08691 9.3913 2.08691Z" fill="black"/>
<path d="M18.2609 14.6086H0.521739C0.233739 14.6086 0 14.8424 0 15.1304C0 15.4184 0.233739 15.6521 0.521739 15.6521H18.2609C19.6993 15.6521 20.8696 16.8224 20.8696 18.2608C20.8696 19.6992 19.6993 20.8695 18.2609 20.8695C16.8224 20.8695 15.6522 19.6992 15.6522 18.2608C15.6522 17.9728 15.419 17.7391 15.1304 17.7391C14.8419 17.7391 14.6087 17.9728 14.6087 18.2608C14.6087 20.2747 16.2475 21.913 18.2609 21.913C20.2743 21.913 21.913 20.2747 21.913 18.2608C21.913 16.2469 20.2743 14.6086 18.2609 14.6086Z" fill="black"/>
</svg>
