<svg width="32" height="30" viewBox="0 0 32 30" fill="none" xmlns="http://www.w3.org/2000/svg">
<g filter="url(#filter0_d_2:220)">
<path d="M27.5005 15.2506H21.8213C21.9444 14.7716 22.0103 14.2691 22.0103 13.7506C22.0103 10.4316 19.3194 7.74072 16 7.74072C12.6806 7.74072 9.98973 10.4316 9.98973 13.7506C9.98973 14.2691 10.0556 14.7716 10.1791 15.2506H4.49987C4.22373 15.2506 4 15.4747 4 15.7509C4 16.027 4.22373 16.2511 4.49987 16.2511H27.5005C27.7759 16.2511 28 16.027 28 15.7509C28 15.4747 27.7759 15.2506 27.5005 15.2506ZM20.7827 15.2506H11.2177C11.0679 14.7716 10.9895 14.2677 10.9895 13.7506C10.9895 12.4132 11.511 11.1545 12.4572 10.2083C13.4035 9.262 14.6618 8.74052 16 8.74052C17.3381 8.74052 18.5964 9.262 19.5427 10.2083C20.4889 11.1545 21.0104 12.4132 21.0104 13.7506C21.0104 14.2677 20.932 14.7716 20.7827 15.2506Z" fill="black"/>
<path d="M8.5 13.2513H5.5C5.22386 13.2513 5.00012 13.4755 5.00012 13.7508C5.00012 14.0277 5.22386 14.2518 5.5 14.2518H8.5C8.77614 14.2518 8.99987 14.0277 8.99987 13.7508C8.99987 13.4755 8.77614 13.2513 8.5 13.2513Z" fill="black"/>
<path d="M26.5002 13.2513H26.4988H23.5002C23.2241 13.2513 23.0007 13.4755 23.0007 13.7508C23.0007 14.0277 23.2241 14.2511 23.5002 14.2518L23.501 14.2511L26.5002 14.2518V14.2511C26.7764 14.2518 26.9997 14.0277 26.9997 13.7508C26.9997 13.4755 26.7763 13.2513 26.5002 13.2513Z" fill="black"/>
<path d="M23.7787 5.97321C23.5831 5.77765 23.2667 5.77765 23.0712 5.97321L23.0704 5.97396L20.9501 8.0943C20.7553 8.28949 20.7553 8.60627 20.9501 8.80146C21.1449 8.99664 21.462 8.99664 21.6576 8.80146C21.6576 8.80146 21.6576 8.80145 21.6576 8.80108L23.7787 6.67999C23.9735 6.4848 23.9735 6.1684 23.7787 5.97321Z" fill="black"/>
<path d="M15.9999 2.75134C15.7237 2.75134 15.4996 2.97508 15.5 3.25122C15.5 3.25159 15.5 3.25197 15.5 3.25267V6.25122C15.5 6.52736 15.7237 6.7511 15.9999 6.7511C16.276 6.75147 16.4998 6.52736 16.4998 6.25122V3.25122C16.4998 2.97508 16.276 2.75134 15.9999 2.75134Z" fill="black"/>
<path d="M11.0498 8.0943C11.0495 8.0943 11.0495 8.09392 11.0495 8.09392L8.92838 5.97321C8.73319 5.77765 8.41678 5.77765 8.22122 5.97321C8.02603 6.1684 8.02603 6.48518 8.22122 6.68036C8.22159 6.68036 8.22197 6.68074 8.22234 6.68111L10.3427 8.80146C10.5379 8.99664 10.8547 8.99664 11.0498 8.80146C11.245 8.60627 11.245 8.28986 11.0498 8.0943Z" fill="black"/>
<path d="M17.4142 18.458L17.4135 18.4573L16.3537 17.3975H16.3533C16.2628 17.3074 16.138 17.251 15.9999 17.251C15.8619 17.251 15.737 17.3074 15.6465 17.3975L14.5856 18.458C14.3904 18.6536 14.3904 18.97 14.5856 19.1648C14.7808 19.3604 15.0976 19.3604 15.2928 19.1648H15.2931L15.5 18.9583V20.7512C15.5 21.0274 15.7238 21.2507 15.9999 21.2507C16.276 21.2507 16.4998 21.0273 16.4998 20.7512C16.4998 20.7512 16.4998 20.7505 16.4998 20.7498V18.9583L16.7071 19.1648C16.9022 19.3611 17.2187 19.3611 17.4142 19.1648C17.6098 18.97 17.6098 18.6536 17.4142 18.458Z" fill="black"/>
</g>
<defs>
<filter id="filter0_d_2:220" x="0" y="0.000976562" width="32" height="32" filterUnits="userSpaceOnUse" color-interpolation-filters="sRGB">
<feFlood flood-opacity="0" result="BackgroundImageFix"/>
<feColorMatrix in="SourceAlpha" type="matrix" values="0 0 0 0 0 0 0 0 0 0 0 0 0 0 0 0 0 0 127 0" result="hardAlpha"/>
<feOffset dy="4"/>
<feGaussianBlur stdDeviation="2"/>
<feComposite in2="hardAlpha" operator="out"/>
<feColorMatrix type="matrix" values="0 0 0 0 0 0 0 0 0 0 0 0 0 0 0 0 0 0 0.25 0"/>
<feBlend mode="normal" in2="BackgroundImageFix" result="effect1_dropShadow_2:220"/>
<feBlend mode="normal" in="SourceGraphic" in2="effect1_dropShadow_2:220" result="shape"/>
</filter>
</defs>
</svg>
