<svg width="24" height="24" viewBox="0 0 24 24" fill="none" xmlns="http://www.w3.org/2000/svg">
<path d="M23.5005 15.251H17.8213C17.9444 14.772 18.0103 14.2695 18.0103 13.751C18.0103 10.4317 15.3194 7.74072 12 7.74072C8.68064 7.74072 5.98973 10.4317 5.98973 13.751C5.98973 14.2695 6.05564 14.772 6.17906 15.251H0.499875C0.223734 15.251 0 15.4751 0 15.7512C0 16.0274 0.223734 16.2515 0.499875 16.2515H23.5005C23.7759 16.2515 24 16.0274 24 15.7512C24 15.4751 23.7759 15.251 23.5005 15.251ZM16.7827 15.251H7.21767C7.06786 14.772 6.98948 14.2681 6.98948 13.751C6.98948 12.4128 7.51097 11.1545 8.45723 10.2083C9.4035 9.262 10.6618 8.74085 12 8.74085C13.3381 8.74085 14.5964 9.26196 15.5427 10.2083C16.4897 11.1546 17.0112 12.4128 17.0112 13.751C17.0112 14.2681 16.932 14.772 16.7827 15.251Z" fill="black"/>
<path d="M4.5 13.2515H1.5C1.22386 13.2515 1.00012 13.4756 1.00012 13.751C1.00012 14.0278 1.22386 14.2512 1.5 14.2512H4.5C4.77614 14.2512 4.99987 14.0278 4.99987 13.751C4.99987 13.4756 4.77614 13.2515 4.5 13.2515Z" fill="black"/>
<path d="M22.5002 13.2515C22.5002 13.2515 22.5002 13.2515 22.4988 13.2515H19.5002C19.2248 13.2515 19.0007 13.4756 19.0007 13.751C19.0007 14.0278 19.2248 14.2512 19.5002 14.2512C19.5002 14.2512 19.5002 14.2512 19.5017 14.2512H22.5002C22.7771 14.2512 22.9997 14.0278 22.9997 13.751C22.9997 13.4756 22.7771 13.2515 22.5002 13.2515Z" fill="black"/>
<path d="M19.7787 5.97281C19.5839 5.77762 19.2675 5.77762 19.0712 5.97281V5.97389L16.9501 8.0939V8.09428C16.7553 8.28947 16.7553 8.60587 16.9501 8.80144C17.1449 8.99663 17.4627 8.99663 17.6576 8.80144V8.80106L19.7787 6.67996C19.9735 6.48478 19.9735 6.16799 19.7787 5.97281Z" fill="black"/>
<path d="M11.9999 2.75098C11.7237 2.75098 11.4996 2.97509 11.5 3.25123V3.2523V6.25123C11.5 6.52737 11.7237 6.7511 11.9999 6.7511C12.276 6.7511 12.4998 6.52737 12.4998 6.25123V3.25123C12.4998 2.97509 12.276 2.75098 11.9999 2.75098Z" fill="black"/>
<path d="M7.04984 8.09428L7.04947 8.0939L4.92838 5.97281C4.73319 5.77762 4.41678 5.77762 4.22122 5.97281C4.02603 6.16799 4.02603 6.48478 4.22122 6.67996C4.22159 6.68034 4.22197 6.68034 4.22234 6.68071L6.34269 8.80144C6.53788 8.99663 6.85466 8.99663 7.04984 8.80144C7.24503 8.60625 7.24503 8.28947 7.04984 8.09428Z" fill="black"/>
<path d="M13.4142 19.3372C13.2187 19.1416 12.9022 19.1416 12.7071 19.3372H12.7067L12.4998 19.5444V17.7515C12.4998 17.4746 12.276 17.2512 11.9999 17.2512C11.7238 17.2512 11.4997 17.4746 11.4997 17.7515C11.4997 17.7515 11.5 17.7515 11.5 17.7529V19.5444L11.2928 19.3372C11.0976 19.1416 10.7808 19.1416 10.5856 19.3372C10.3904 19.5327 10.3904 19.8491 10.5856 20.0439C10.586 20.0447 10.5863 20.0447 10.5867 20.0454L11.6461 21.1045C11.737 21.1953 11.8619 21.251 11.9999 21.251C12.138 21.251 12.2628 21.1953 12.3533 21.1045L13.4142 20.0439C13.6098 19.8491 13.6098 19.5327 13.4142 19.3372Z" fill="black"/>
</svg>
