<svg width="24" height="24" viewBox="0 0 24 24" fill="none" xmlns="http://www.w3.org/2000/svg">
<path d="M22.362 6.01644C22.2411 5.80855 21.9745 5.738 21.7666 5.85888L19.6402 7.08812C19.4323 7.20899 19.3617 7.47559 19.4826 7.68349C19.6035 7.89139 19.8701 7.96193 20.078 7.84105L22.2044 6.61182C22.4123 6.49088 22.4829 6.22434 22.362 6.01644Z" fill="black"/>
<path d="M22.2044 17.3906L20.078 16.1614C19.8701 16.0405 19.6035 16.111 19.4826 16.3189C19.3617 16.5268 19.4323 16.7934 19.6402 16.9143L21.7666 18.1435C21.9745 18.2644 22.2411 18.1938 22.362 17.9859C22.4829 17.778 22.4123 17.5115 22.2044 17.3906Z" fill="black"/>
<path d="M12.034 20.6047C11.7928 20.5868 11.5829 20.7678 11.5649 21.0089C11.5633 21.0305 11.5633 21.0522 11.5649 21.0738V23.5298C11.547 23.771 11.728 23.9809 11.9691 23.9988C12.2103 24.0168 12.4202 23.8358 12.4381 23.5946C12.4398 23.5731 12.4398 23.5514 12.4381 23.5298V21.0738C12.456 20.8327 12.275 20.6227 12.034 20.6047Z" fill="black"/>
<path d="M4.35993 7.08812L2.23343 5.85888C2.02553 5.738 1.75893 5.80855 1.63806 6.01644C1.51718 6.22434 1.58772 6.49094 1.79562 6.61182L3.92212 7.84105C4.13002 7.96193 4.39661 7.89139 4.51749 7.68349C4.63837 7.47553 4.56782 7.20899 4.35993 7.08812Z" fill="black"/>
<path d="M12.0341 0.00122418C11.7929 -0.0166971 11.583 0.16426 11.5651 0.405415C11.5634 0.427005 11.5634 0.448655 11.5651 0.470245V2.9263C11.5664 3.1662 11.7606 3.36038 12.0005 3.36171C12.2423 3.36171 12.4383 3.16571 12.4383 2.9239V0.470305C12.4561 0.229149 12.2752 0.0191455 12.0341 0.00122418Z" fill="black"/>
<path d="M7.83857 3.922L6.61175 1.7955C6.49087 1.5876 6.22428 1.51706 6.01638 1.63793C5.80848 1.75881 5.73794 2.02541 5.85882 2.23331L7.08564 4.3598C7.20652 4.5677 7.47311 4.63825 7.68101 4.51737C7.88891 4.39643 7.95945 4.12989 7.83857 3.922Z" fill="black"/>
<path d="M12.0645 8.11499C12.0429 8.11336 12.0212 8.11336 11.9996 8.11499C9.85401 8.11499 8.11469 9.85431 8.11469 11.9999C8.11469 12.2417 8.31068 12.4377 8.55249 12.4377C8.79335 12.4364 8.9879 12.2408 8.9879 11.9999C8.98658 10.3379 10.3328 8.98952 11.9948 8.9882C11.9965 8.9882 11.998 8.9882 11.9996 8.9882C12.2408 9.00612 12.4507 8.82516 12.4687 8.58401C12.4866 8.34285 12.3056 8.13285 12.0645 8.11499Z" fill="black"/>
<path d="M23.9339 11.9662C23.9179 11.75 23.746 11.5781 23.5298 11.562H21.0737C20.8325 11.5441 20.6226 11.7251 20.6047 11.9662C20.5868 12.2074 20.7677 12.4173 21.0089 12.4352C21.0305 12.4369 21.0522 12.4369 21.0738 12.4352H23.5298C23.7709 12.4174 23.9519 12.2074 23.9339 11.9662Z" fill="black"/>
<path d="M2.99075 11.5647C2.96916 11.5631 2.94751 11.5631 2.92592 11.5647H0.469868C0.228713 11.5826 0.047756 11.7926 0.0656773 12.0337C0.0817343 12.2499 0.25361 12.4218 0.469868 12.4379H2.92592C3.16708 12.4558 3.37702 12.2749 3.39494 12.0337C3.41286 11.7926 3.23191 11.5826 2.99075 11.5647Z" fill="black"/>
<path d="M12.0019 5.57471C8.45337 5.57423 5.57635 8.45047 5.57581 11.999C5.57557 13.7038 6.25284 15.3387 7.45844 16.544C8.66175 17.7503 10.2963 18.4273 12.0001 18.4251C15.5486 18.4256 18.4257 15.5493 18.4262 12.0008C18.4267 8.45228 15.5504 5.57519 12.0019 5.57471ZM15.9259 15.933C13.7578 18.1011 10.2424 18.1011 8.07426 15.933C7.03128 14.89 6.44619 13.4749 6.44811 11.9999C6.44601 10.527 7.03128 9.11404 8.07426 8.07406V8.08128C10.2424 5.91311 13.7578 5.91311 15.9259 8.08128C18.0942 10.2495 18.0942 13.7648 15.9259 15.933Z" fill="black"/>
<path d="M18.1424 21.7686C18.142 21.768 18.1417 21.7673 18.1412 21.7667L16.912 19.6402C16.7911 19.4323 16.5245 19.3618 16.3166 19.4827C16.1087 19.6035 16.0382 19.8701 16.1591 20.078L17.3883 22.2045C17.5087 22.4122 17.7745 22.4832 17.9825 22.3633C18.1909 22.2432 18.2625 21.9769 18.1424 21.7686Z" fill="black"/>
<path d="M17.998 1.63793C17.7901 1.51706 17.5235 1.5876 17.4027 1.7955L16.1734 3.92199C16.0517 4.12941 16.1212 4.39618 16.3286 4.51784C16.329 4.51808 16.3294 4.51833 16.3298 4.51857C16.5375 4.63968 16.8041 4.5695 16.9252 4.36172C16.9256 4.36106 16.926 4.3604 16.9264 4.3598L18.1556 2.2333C18.2765 2.02535 18.2059 1.75881 17.998 1.63793Z" fill="black"/>
<path d="M7.68343 19.4827C7.47553 19.3618 7.20893 19.4323 7.08805 19.6402L5.85882 21.7667C5.73794 21.9746 5.80848 22.2412 6.01638 22.3621C6.22428 22.4829 6.49088 22.4124 6.61176 22.2045L7.84099 20.078C7.96187 19.8701 7.89133 19.6035 7.68343 19.4827Z" fill="black"/>
<path d="M4.51749 16.3167C4.39661 16.1088 4.13002 16.0383 3.92212 16.1592L1.79562 17.3884C1.58772 17.5093 1.51718 17.7759 1.63806 17.9838C1.75893 18.1917 2.02553 18.2622 2.23343 18.1413L4.35993 16.9121C4.56782 16.7912 4.63837 16.5246 4.51749 16.3167Z" fill="black"/>
</svg>
