<svg width="24" height="24" viewBox="0 0 24 24" fill="none" xmlns="http://www.w3.org/2000/svg">
<g clip-path="url(#clip0)">
<path d="M23.8004 4.38486C23.6396 4.27588 23.4266 4.28178 23.2713 4.39894C23.0674 4.55334 22.7359 4.67595 22.379 4.7704C23.3086 3.72868 23.3285 3.03299 23.3186 2.87314C23.3081 2.70785 23.2087 2.56117 23.0588 2.49078C22.9085 2.41994 22.7323 2.4372 22.5983 2.53438C21.5525 3.29455 20.5108 3.45485 19.8914 3.4712C18.9405 2.56117 17.7058 2.06256 16.3916 2.06256C13.578 2.06256 11.2893 4.38214 11.2893 7.23302C11.2893 7.47824 11.3065 7.723 11.3406 7.9655C6.46438 7.91055 2.50457 3.23824 2.4637 3.18965C2.36834 3.07613 2.22393 3.01528 2.07589 3.02845C1.92785 3.04116 1.79571 3.12517 1.72169 3.25414C0.318498 5.68815 1.25759 7.82608 2.11585 9.05036C1.96418 8.96953 1.84112 8.8896 1.76755 8.83556C1.63132 8.73384 1.44922 8.71704 1.29574 8.79242C1.1427 8.86781 1.04507 9.0222 1.04189 9.19249C1.0042 11.5121 2.12039 12.8408 3.17029 13.5755C3.03042 13.5624 2.88829 13.6141 2.79111 13.7199C2.68212 13.8385 2.64352 14.006 2.69075 14.16C3.41596 16.5336 5.19651 17.3401 6.32951 17.6139C3.99994 19.4276 0.571436 18.8436 0.533745 18.8373C0.326672 18.8005 0.122324 18.9095 0.0378601 19.1016C-0.0461497 19.2932 0.0110678 19.518 0.178179 19.6451C2.63717 21.5219 5.57842 21.9375 7.70273 21.9375C9.30981 21.9375 10.4501 21.6995 10.5591 21.6754C21.3205 19.1252 21.6234 9.26787 21.5984 7.65262C23.6187 5.77398 23.9343 5.0583 23.9829 4.8812C24.0351 4.69366 23.9616 4.49385 23.8004 4.38486ZM20.8314 7.1254C20.7301 7.21849 20.677 7.35245 20.6861 7.49005C20.7147 7.92599 21.2651 18.2056 10.3588 20.7899C10.3093 20.8004 5.97394 21.705 2.21576 19.8431C3.80377 19.7991 6.08066 19.3831 7.66685 17.6021C7.78674 17.4681 7.8158 17.2756 7.74133 17.1121C7.66776 16.95 7.50565 16.846 7.32809 16.846C7.32673 16.846 7.32491 16.846 7.32355 16.846C7.30084 16.8605 4.91633 16.8433 3.82466 14.575C4.26423 14.6 4.80644 14.5727 5.23829 14.3739C5.4163 14.2917 5.5212 14.105 5.4994 13.9102C5.47761 13.7158 5.3332 13.5574 5.14157 13.517C5.01941 13.4911 2.3647 12.8975 1.99324 10.0017C2.39604 10.1779 2.91145 10.3219 3.42096 10.2442C3.59624 10.2179 3.73974 10.0921 3.78924 9.92179C3.83873 9.7515 3.7847 9.56804 3.65073 9.45179C3.53721 9.35279 1.04416 7.1372 2.2262 4.27951C3.50951 5.62594 7.31038 9.12483 11.9155 8.86054C12.0503 8.85282 12.1752 8.7847 12.2556 8.67572C12.3355 8.56673 12.3628 8.42778 12.3301 8.29654C12.2429 7.94915 12.1984 7.59131 12.1984 7.23348C12.1984 4.88302 14.0802 2.97123 16.393 2.97123C17.5241 2.97123 18.5854 3.42261 19.3805 4.24273C19.4641 4.32901 19.579 4.37851 19.6989 4.38078C20.1802 4.38759 20.9713 4.33082 21.865 3.97253C21.607 4.29359 21.2283 4.67822 20.6711 5.11598C20.5135 5.23995 20.4559 5.45201 20.529 5.63865C20.6021 5.82574 20.791 5.94336 20.9881 5.92565C21.0939 5.91702 21.6334 5.86979 22.2432 5.73765C21.9099 6.09548 21.4544 6.55232 20.8314 7.1254Z" fill="white"/>
</g>
<defs>
<clipPath id="clip0">
<rect width="24" height="24" fill="white"/>
</clipPath>
</defs>
</svg>
